<?xml version="1.0" standalone="no"?><!DOCTYPE svg PUBLIC "-//W3C//DTD SVG 1.1//EN" "http://www.w3.org/Graphics/SVG/1.1/DTD/svg11.dtd"><svg t="1601037209049" class="icon" viewBox="0 0 1280 1024" version="1.1" xmlns="http://www.w3.org/2000/svg" p-id="856" xmlns:xlink="http://www.w3.org/1999/xlink" width="250" height="200"><defs><style type="text/css"></style></defs><path d="M572.00215625 272a60 60 0 1 0 120 0 60 60 0 1 0-120 0zM932.00215625 632a60 60 0 1 0 120 0 60 60 0 1 0-120 0zM212.00215625 632a60 60 0 1 0 120 0 60 60 0 1 0-120 0zM335.00215625 335a60 60 0 1 0 84.9 0 60 60 0 0 0-84.9 0z m594 0a60 60 0 1 0 0 84.9 60 60 0 0 0 0-84.9z" p-id="857"></path><path d="M1056.20215625 207.8A600 600 0 0 0 32.00215625 632a595.2 595.2 0 0 0 120 360l85.8-85.8a480 480 0 0 1 733.5-613.5 480 480 0 0 1 54.6 613.5l86.1 85.8a600 600 0 0 0-55.8-784.2z" p-id="858"></path><path d="M554.00215625 737a90 90 0 0 0 156 90c24.9-42.9 87-330 87-330s-218.1 197.1-243 240z" p-id="859"></path></svg>