<?xml version="1.0" standalone="no"?><!DOCTYPE svg PUBLIC "-//W3C//DTD SVG 1.1//EN" "http://www.w3.org/Graphics/SVG/1.1/DTD/svg11.dtd"><svg t="1601036720238" class="icon" viewBox="0 0 1024 1024" version="1.1" xmlns="http://www.w3.org/2000/svg" p-id="856" xmlns:xlink="http://www.w3.org/1999/xlink" width="200" height="200"><defs><style type="text/css"></style></defs><path d="M659.65625 559.4609375c66.79714966-45.70339966 110.7421875-123.04660034 110.7421875-210.9375C770.3984375 206.140625 654.3828125 90.125 512 90.125S255.35910034 206.140625 255.35910034 346.76589966c0 87.89007568 43.94586182 165.23410034 110.7421875 210.9375C214.92996216 617.46875 109.46121216 763.36746216 109.46121216 933.875h72.06976318c0-168.75 128.32086182-309.37527466 291.79742432-328.71066284 1.75753784 0 45.70257568-3.51589966 82.61663818 0h3.51589966c159.96066284 22.85128784 283.00808716 159.96066284 283.00808716 326.953125h73.828125C914.53878784 763.36746216 809.07003784 617.46875 659.65625 559.4609375zM512 540.12472534c-107.22628784 0-193.35964966-86.13253784-193.35964966-193.35882568C318.64035034 239.53878784 404.77371216 153.40625 512 153.40625c107.22628784 0 193.35964966 86.13253784 193.35964966 193.35964966 0 107.22628784-86.13336182 193.35882568-193.35964966 193.35882568z" p-id="857"></path></svg>